inDegrees=yes
name=ik_S42_A04_T02
DataType=double
version=3
OpenSimVersion=4.3-2021-08-27-4bc7ad9
endheader
time	pelvis_tilt	pelvis_list	pelvis_rotation	pelvis_tx	pelvis_ty	pelvis_tz	hip_flexion_r	hip_adduction_r	hip_rotation_r	knee_angle_r	knee_angle_r_beta	ankle_angle_r	subtalar_angle_r	mtp_angle_r	hip_flexion_l	hip_adduction_l	hip_rotation_l	knee_angle_l	knee_angle_l_beta	ankle_angle_l	subtalar_angle_l	mtp_angle_l	lumbar_extension	lumbar_bending	lumbar_rotation	arm_flex_r	arm_add_r	arm_rot_r	elbow_flex_r	pro_sup_r	wrist_flex_r	wrist_dev_r	arm_flex_l	arm_add_l	arm_rot_l	elbow_flex_l	pro_sup_l	wrist_flex_l	wrist_dev_l
0	0	0	0	0	0.9399999999999999	0	0	0	0	0	0	0	0	0	0	0	0	0	0	0	0	0	0	0	0	0	0	0	0	89.99999999963507	0	0	0	0	0	0	89.99999999869995	0	0
0.02	21.05919118098776	4.871267512141142	23.42954958962164	0	0.9399999999999999	0	51.78047184560958	0.9613138207557724	-6.811608260427347	83.27319524804199	1.453391435734429	0	0	0	51.21549575332293	-10.88894684995172	2.832504841216719	89.57896072268358	1.563447805125507	0	0	0	0	0	0	3.852192477877488	-3.852192477877488	0.705320738094497	20.70889623018169	89.29467930318094	0	0	3.852192477877488	-3.852192477877488	0.705320738094497	20.70889623018169	89.29467930237826	0	0
0.04	21.12533563364972	4.918250324959495	23.38800694066616	0	0.9399999999999999	0	51.72420792883043	0.9769147733515477	-6.761002698858337	83.38885068598728	1.45541000392441	0	0	0	51.09906499790756	-10.90329936434032	2.777581814547975	89.43971236610233	1.561017462825174	0	0	0	0	0	0	4.091097896824124	-4.091097896824124	0.7484181112662355	21.33767644368536	89.2515819325295	0	0	4.091097896824124	-4.091097896824124	0.7484181112662355	21.33767644368536	89.25158193173485	0	0
0.06	21.09910744940597	4.883061939707868	23.34614951056796	0	0.9399999999999999	0	51.77133806150868	1.042818279520767	-6.729364671312233	83.41245774081985	1.455822024757937	0	0	0	51.13667369038671	-10.95439508188955	2.77428819987698	89.43389945551031	1.560916008396219	0	0	0	0	0	0	4.951528357830312	-4.951528357830312	0.9055043183537919	24.45196003000875	89.09449573466289	0	0	4.951528357830312	-4.951528357830312	0.9055043183537919	24.45196003000875	89.09449573389753	0	0
0.08	21.05543135062632	4.841491712350771	23.29639248242605	0	0.9399999999999999	0	51.821601015508	1.088890133451814	-6.712062574103906	83.4067317255448	1.455722086938368	0	0	0	51.17588018493998	-10.97188395432314	2.739708132659791	89.42643751829425	1.560785773023222	0	0	0	0	0	0	5.265408056071123	-5.265408056071123	0.962257767299233	25.57262749241937	89.03774228904189	0	0	5.265408056071123	-5.265408056071123	0.962257767299233	25.57262749241937	89.03774228828713	0	0
0.1	21.09818315460365	4.826017895313619	23.23197347548054	0	0.9399999999999999	0	51.77163265298685	1.174688563688866	-6.720669628935928	83.30858551827026	1.454009112473083	0	0	0	51.11444421965778	-11.0433828032401	2.720994939377913	89.32181669649567	1.558959795216694	0	0	0	0	0	0	5.463424030908191	-5.463424030908191	0.9977496553614347	26.17340615945094	89.00225040305328	0	0	5.463424030908191	-5.463424030908191	0.9977496553614347	26.17340615945094	89.00225040230515	0	0
0.12	21.16657235020326	4.878571371801032	23.23101446605534	0	0.9399999999999999	0	51.66637011494808	1.157309750708366	-6.703407979251139	83.21053356709059	1.452297783086993	0	0	0	51.01407299143238	-10.97957629915922	2.695068512692991	89.2213641840214	1.557206568132117	0	0	0	0	0	0	5.616296237055656	-5.616296237055656	1.025105206769566	26.65336087147719	88.9748948532429	0	0	5.616296237055656	-5.616296237055656	1.025105206769566	26.65336087147719	88.97489485249996	0	0
0.14	21.20943029847429	4.848042310726425	23.24132717321991	0	0.9399999999999999	0	51.6333639298029	1.193356007566231	-6.753861967077034	83.1706278933395	1.451601297689809	0	0	0	50.97916964081432	-10.96996586409338	2.710875102389636	89.20772755818687	1.556968564112442	0	0	0	0	0	0	5.745574694733546	-5.745574694733546	1.048427905274816	27.09638324313405	88.95157215610291	0	0	5.745574694733546	-5.745574694733546	1.048427905274816	27.09638324313405	88.95157215536443	0	0
0.16	21.19974097873039	4.839169300694905	23.23845305173998	0	0.9399999999999999	0	51.66425384553339	1.239864909179339	-6.745520966116115	83.27878520380682	1.453488998867566	0	0	0	51.03819223018451	-10.94936928103358	2.697159623556771	89.37335714728721	1.559859345780968	0	0	0	0	0	0	5.842065210077613	-5.842065210077613	1.065671867839766	27.40470957024792	88.93432819454503	0	0	5.842065210077613	-5.842065210077613	1.065671867839766	27.40470957024792	88.93432819380978	0	0
0.18	21.31086564365398	4.852697479584616	23.22006878507872	0	0.9399999999999999	0	51.52895762727891	1.282607993749701	-6.781439421435012	83.11615103486339	1.450650497143258	0	0	0	50.86370959791459	-10.95766324861217	2.646683250772144	89.16896093493078	1.556291958896743	0	0	0	0	0	0	6.06596166681117	-6.06596166681117	1.105696858711341	28.113768014905	88.89430320601096	0	0	6.06596166681117	-6.06596166681117	1.105696858711341	28.113768014905	88.89430320528318	0	0
0.2	21.5527977671385	4.991071904044643	23.3516475181967	0	0.9399999999999999	0	51.27607815620727	1.162212758372576	-6.818633428233701	83.19320185014824	1.451995287561325	0	0	0	50.62962385694938	-10.8134219889953	2.704845537597985	89.26990631733725	1.558053788184421	0	0	0	0	0	0	6.069639137196923	-6.069639137196923	1.106372628971253	28.12889267165846	88.89362743579083	0	0	6.069639137196923	-6.069639137196923	1.106372628971253	28.12889267165846	88.89362743506312	0	0
